# xmcd
#
# Track frame offsets:
#	150
#	9327
#	20127
#	28593
#	39824
#	49135
#	58581
#	70691
#	80636
#	90954
#	100790
#	110009
#
# Disc length: 1624 seconds
# Revision: 0
# Processed by: cddbd v1.5.2PL0 Copyright (c) Steve Scherf et al.
# Submitted via: dBpowerAMP V12.0
#
DISCID=8b06560c
DTITLE=Eddy Arnold - My World
DYEAR=1900
DGENRE=
TTITLE0=What's He Doin' In My World
TTITLE1=Too Many Rivers
TTITLE2=It Comes And Goes
TTITLE3=Make The World Go Away
TTITLE4=The Days Gone By
TTITLE5=Mary Claire Melvina Rebecca Jane
TTITLE6=I'm Letting You Go
TTITLE7=As Usual
TTITLE8=I'm Walking Behind You
TTITLE9=Mary
TTITLE10=Taking Chances
TTITLE11=You Still Got A Hold On Me
EXTD=
EXTT0=
EXTT1=
EXTT2=
EXTT3=
EXTT4=
EXTT5=
EXTT6=
EXTT7=
EXTT8=
EXTT9=
EXTT10=
EXTT11=
PLAYORDER=
